<svg xmlns="http://www.w3.org/2000/svg" width="409" height="161" viewBox="0 0 409 161">
  <g fill="#ffffff" fill-rule="evenodd" transform="translate(0 -1)">
    <g transform="translate(0 .89)">
      <path d="M405.9842 13.5051L402.6792 13.5051C402.0812 13.5051 401.4492 13.5481 400.8942 14.0671 400.2342 14.6871 400.2382 15.4631 400.2442 16.2151L400.2472 73.0641C400.2442 73.8211 400.2402 74.6001 400.9022 75.2241 401.4562 75.7431 402.0882 75.7851 402.6882 75.7851L405.9922 75.7851C406.5912 75.7851 407.2232 75.7431 407.7772 75.2241 408.4282 74.6141 408.4212 73.8521 408.4132 73.1181L408.4262 16.2251C408.4302 15.4691 408.4342 14.6891 407.7682 14.0671 407.2162 13.5481 406.5842 13.5051 405.9842 13.5051M391.5162.4783L388.2132.4783C387.6132.4783 386.9812.5213 386.4272 1.0413 385.7662 1.6603 385.7702 2.4353 385.7762 3.1883L385.7792 73.0653C385.7762 73.8193 385.7722 74.6023 386.4342 75.2233 386.9892 75.7433 387.6202 75.7853 388.2202 75.7853L391.5242 75.7853C392.1232 75.7853 392.7552 75.7433 393.3102 75.2213 393.9582 74.6163 393.9512 73.8543 393.9452 73.1173L393.9572 3.1963C393.9602 2.4423 393.9642 1.6623 393.3022 1.0413 392.7482.5213 392.1162.4783 391.5162.4783M77.2699 13.0637C74.3639 13.0637 71.6079 14.1197 69.5119 16.0357 68.4949 16.9667 67.8479 17.7527 67.5959 18.0587 67.3489 18.3617 67.1859 18.5147 67.1159 18.5187 66.9979 18.5027 66.9829 18.3147 66.9899 17.8987L66.9859 3.1767C66.9899 2.4247 66.9939 1.6467 66.3339 1.0287 65.7789.5107 65.1469.4667 64.5479.4667L61.2429.4667C60.6449.4667 60.0129.5107 59.4589 1.0307 58.7989 1.6467 58.8029 2.4247 58.8059 3.1767L58.8449 45.9717C58.8449 55.6457 59.8119 62.6027 61.7179 66.6497 64.6789 72.9367 69.7699 76.2587 76.4419 76.2587 82.7439 76.2587 88.2449 72.5527 91.1569 66.3437 93.0669 62.2677 94.1629 54.3577 94.1629 44.6467 94.1629 35.8407 93.0129 27.5417 91.1609 22.9877 88.4789 16.4017 83.8059 13.0637 77.2699 13.0637M82.5059 65.3267C81.0399 67.3377 78.8899 68.4477 76.4209 68.4477 74.9799 68.4477 72.2629 68.0417 70.2569 65.3267 67.9699 62.2297 66.9049 56.0697 66.9049 45.9357 66.9049 33.9367 67.9089 27.4587 70.2569 24.2737 72.2589 21.5577 75.0429 21.1517 76.4129 21.1517 79.1039 21.1517 80.9489 22.2047 82.5079 24.2737 84.6999 27.1867 85.8579 34.2807 85.8579 44.7877 85.8579 55.5157 84.7609 62.2337 82.5059 65.3267M400.9022 9.6008C401.4562 10.1188 402.0882 10.1618 402.6862 10.1618L405.9922 10.1618C406.5912 10.1618 407.2232 10.1188 407.7772 9.6008 408.4262 8.9918 408.4192 8.2308 408.4132 7.4938L408.4242 3.1788C408.4282 2.4218 408.4322 1.6398 407.7702 1.0198 407.2162.5028 406.5862.4578 405.9842.4578L402.6792.4578C402.0812.4578 401.4492.5028 400.8942 1.0198 400.2342 1.6378 400.2382 2.4158 400.2442 3.1658L400.2472 7.4428C400.2442 8.1988 400.2402 8.9788 400.9022 9.6008M129.7457 55.7066L126.8527 55.7066C126.2317 55.7066 125.5297 55.7446 125.0507 56.1916 124.4997 56.7086 124.4117 57.4866 124.3367 58.1726L124.3207 58.3096C124.0257 60.8876 123.1607 63.3376 121.8797 65.2166 120.5097 67.2266 118.3337 68.3326 115.7517 68.3326L115.5967 68.3326C114.1457 68.3326 111.4097 67.9266 109.3887 65.2086 108.0387 63.3936 107.1167 60.4156 106.5677 56.1046 106.4987 55.5586 106.4587 54.9366 106.6927 54.4346 106.8337 54.1316 107.5067 53.6076 107.7567 53.4276L129.8557 37.2996C130.9157 36.3996 131.3857 35.8836 131.7887 35.1726 132.1637 34.5106 132.3437 33.2426 132.2817 31.6906 132.1617 28.6126 131.5007 25.2866 130.5577 23.0116 127.9827 16.7956 122.3937 13.0866 115.6057 13.0866 107.1957 13.0866 102.8507 18.4776 100.6867 23.0016 98.7437 27.0606 97.6297 34.9576 97.6297 44.6676 97.6297 54.4006 98.7437 62.3086 100.6867 66.3666 102.8507 70.8926 107.1957 76.2816 115.6057 76.2816 121.9067 76.2816 127.4237 72.5756 130.3617 66.3666 131.6427 63.6646 132.1897 60.2196 132.3137 58.6116 132.3667 57.9166 132.4467 56.8666 131.8547 56.2736 131.3897 55.8026 130.6757 55.7066 129.7457 55.7066M106.2467 44.7916C106.0337 44.7366 105.9487 44.3256 105.9387 43.9586 105.6897 34.6606 106.9487 27.4446 109.3887 24.1596 111.4097 21.4436 114.1457 21.0356 115.5967 21.0356L116.0197 21.0316C118.4157 21.0316 120.4307 22.1106 121.8467 24.1536 122.7767 25.4936 123.4757 27.8306 123.6307 30.1036 123.6307 30.1166 123.6807 31.3776 123.6047 31.8266 123.5357 32.2026 123.3267 32.4826 122.8017 32.8886L107.5987 44.1596C107.0237 44.5846 106.5977 44.8016 106.3327 44.8016 106.3017 44.8016 106.2717 44.7976 106.2467 44.7916M19.877 18.8577L19.877 16.2057C19.884 15.5197 19.889 14.8107 19.325 14.1907 18.764 13.5697 17.952 13.5167 17.169 13.5167L16.851 13.5187C7.13 13.5187.848 21.4937.848 33.8357L.854 73.0807C.85 73.8347.846 74.6117 1.507 75.2297 2.061 75.7487 2.691 75.7907 3.289 75.7907L6.598 75.7907C7.197 75.7907 7.829 75.7487 8.381 75.2297 9.042 74.6117 9.034 73.8657 9.034 73.0827L8.993 33.5267C8.993 26.2787 11.847 22.0577 17.028 21.6407L17.272 21.6237C17.994 21.5717 18.74 21.5187 19.325 20.8727 19.889 20.2517 19.884 19.5437 19.877 18.8577M37.0495 13.0858C28.6415 13.0858 24.2955 18.4788 22.1305 23.0008 20.1895 27.0598 19.0725 34.9568 19.0725 44.6688 19.0725 54.3998 20.1895 62.3088 22.1305 66.3688 24.2955 70.8908 28.6415 76.2838 37.0495 76.2838 43.4525 76.2838 49.0395 72.5768 51.9985 66.3688 53.9395 62.2898 55.0535 54.3808 55.0535 44.6688 55.0535 34.9768 53.9395 27.0788 51.9985 23.0028 49.0395 16.7928 43.4525 13.0858 37.0495 13.0858M43.2955 65.2088C41.2345 67.9268 38.4985 68.3328 37.0395 68.3328 35.5885 68.3328 32.8535 67.9268 30.8325 65.2108 28.5285 62.1108 27.4565 55.5858 27.4565 44.6748 27.4565 33.7768 28.5285 27.2588 30.8325 24.1608 30.8325 24.1608 32.8045 21.0368 37.0515 21.0368 41.2965 21.0368 43.2955 24.1608 43.2955 24.1608 45.5045 27.0708 46.6715 34.1658 46.6715 44.6748 46.6715 55.1948 45.5045 62.2948 43.2955 65.2088M172.7823 18.9856L172.7823 16.2176C172.7893 15.5326 172.7923 14.8236 172.2313 14.2036 171.6763 13.5906 171.0023 13.5396 170.3013 13.5396L166.5263 13.5416C166.1913 13.5416 165.9363 13.4526 165.7483 13.2696 165.5333 13.0606 165.4283 12.7996 165.4283 12.4686L165.4803 5.3776C165.4853 4.6246 165.4893 3.8416 164.8253 3.2206 164.2713 2.7016 163.6423 2.6586 163.0433 2.6586L159.7323 2.6586C159.1353 2.6586 158.5043 2.7016 157.9503 3.2206 157.2913 3.8396 157.2953 4.6156 157.2993 5.3686L157.3033 73.0656C157.2993 73.8196 157.2953 74.6026 157.9583 75.2236 158.5123 75.7406 159.1433 75.7856 159.7433 75.7856L163.0473 75.7856C163.6483 75.7856 164.2803 75.7406 164.8333 75.2216 165.4823 74.6136 165.4763 73.8526 165.4693 73.1156L165.4693 22.7546C165.4693 22.3966 165.5483 22.1446 165.7183 21.9626 165.9263 21.7446 166.1843 21.6376 166.5073 21.6376L170.3013 21.6636C171.0023 21.6636 171.6763 21.6126 172.2313 21.0026 172.7923 20.3796 172.7893 19.6706 172.7823 18.9856M256.1171 55.7076L253.2191 55.7076C252.5641 55.7076 251.8261 55.7436 251.3471 56.1926 250.7501 56.7506 250.6551 57.5746 250.5811 58.2326 250.2651 60.9966 249.4381 63.4776 248.2521 65.2166 246.8821 67.2266 244.7051 68.3326 242.1201 68.3326L241.9651 68.3326C240.5121 68.3326 237.7761 67.9266 235.7581 65.2106 233.4611 62.1206 232.3421 55.4016 232.3421 44.6746 232.3421 33.8106 233.4271 27.2936 235.7581 24.1606 237.9051 21.2706 240.8201 20.9596 242.0291 20.9596L242.1071 20.9596C244.6441 20.9596 246.7571 22.0646 248.2141 24.1546 249.4461 25.9196 250.2901 28.2946 250.7271 31.2166 250.9221 32.5306 251.0711 32.9756 251.4191 33.2926 251.8241 33.6606 252.7611 33.6606 253.4481 33.6606L256.0361 33.6606C256.8591 33.6606 257.6911 33.5926 258.1851 33.0966 258.7751 32.5006 258.6941 31.4516 258.6431 30.7566 258.5461 29.5096 258.1811 26.2596 256.8441 23.0106 254.8741 18.2126 249.9321 13.0856 241.9751 13.0856 233.5651 13.0856 229.2191 18.4776 227.0541 23.0006 225.1111 27.0596 223.9971 34.9566 223.9971 44.6686 223.9971 54.3996 225.1111 62.3086 227.0541 66.3686 229.2191 70.8926 233.5651 76.2836 241.9751 76.2836 248.2771 76.2836 253.7951 72.5756 256.7341 66.3686 258.0131 63.6646 258.5631 60.2216 258.6841 58.6116 258.7391 57.9176 258.8191 56.8656 258.2271 56.2726 257.7631 55.8036 257.0461 55.7076 256.1171 55.7076M364.1999 22.3581C362.0709 16.5521 356.5009 13.0881 349.3059 13.0881 342.5499 13.0881 337.0179 16.7961 334.5089 23.0101 333.0879 26.5321 332.7459 29.8281 332.6779 30.7561 332.6229 31.4511 332.5429 32.5031 333.1339 33.0961 333.6279 33.5921 334.4579 33.6601 335.2809 33.6601L337.8689 33.6601C338.6069 33.6601 339.5189 33.5981 340.0509 33.1001 340.6009 32.5851 340.6849 31.8821 340.7659 31.2031L340.7809 31.0591C341.1689 27.8791 341.8649 25.6451 342.9099 24.2351 345.0509 21.3471 348.3059 21.0371 349.6049 21.0371 350.8179 21.0371 353.8359 21.2831 355.6559 23.5571 356.5789 24.7111 356.9919 25.9681 356.9919 27.6371 356.9919 31.7981 354.3049 33.7601 352.8599 34.8111 351.7539 35.6161 350.1349 36.5821 348.2579 37.6991 345.9559 39.0691 343.3449 40.6231 340.7569 42.4231 331.6069 48.7901 330.3749 55.4391 330.3749 61.1041 330.3749 65.9221 332.0569 69.8841 335.2389 72.5561 338.0259 74.8951 341.9089 76.1811 346.1729 76.1811 349.8779 76.1811 353.2959 75.0101 356.0649 72.7941L356.3029 72.6001C356.6109 72.3481 356.8339 72.1641 357.0289 72.1641L357.0389 72.1641C357.1539 72.1961 357.1599 72.5581 357.1639 72.7771 357.1639 72.8601 357.1689 73.1731 357.1689 73.1731 357.1659 73.9271 357.1619 74.7081 357.8239 75.3311 358.3779 75.8491 359.0099 75.8931 359.6079 75.8931L362.9129 75.8931C363.5149 75.8931 364.1449 75.8491 364.6989 75.3291 365.3479 74.7231 365.3409 73.9601 365.3349 73.2231L365.3329 32.5701C365.3329 30.4391 365.3329 25.4441 364.1999 22.3581zM357.1349 57.4251C357.1349 60.7561 356.0459 63.5821 353.9849 65.5951 352.1159 67.4231 349.5939 68.4281 346.8869 68.4281L346.8849 68.4281C346.7749 68.4281 346.6649 68.4261 346.5019 68.4231 342.9789 68.3191 341.1669 66.9491 340.2679 65.8181 339.1449 64.4111 338.5259 62.5871 338.5259 60.6891 338.5259 56.2831 340.2289 53.0211 344.3999 49.4231 346.5759 47.5481 350.5589 45.0701 353.1939 43.4321 353.6349 43.1561 354.8059 42.4231 354.8059 42.4231 355.8619 41.7581 356.4979 41.3561 356.8139 41.3561L356.8779 41.3631C357.1409 41.4331 357.1369 42.1411 357.1349 42.6581L357.1349 57.4251zM189.9132 13.0858C181.5042 13.0858 177.1592 18.4788 174.9932 23.0008 173.0522 27.0598 171.9372 34.9568 171.9372 44.6688 171.9372 54.3998 173.0522 62.3088 174.9932 66.3688 177.1592 70.8908 181.5042 76.2838 189.9132 76.2838 196.3152 76.2838 201.9032 72.5768 204.8612 66.3688 206.8032 62.2898 207.9172 54.3828 207.9172 44.6688 207.9172 34.9748 206.8032 27.0788 204.8612 23.0028 201.9032 16.7928 196.3152 13.0858 189.9132 13.0858M196.1582 65.2088C194.0972 67.9268 191.3612 68.3328 189.9032 68.3328 188.4512 68.3328 185.7172 67.9268 183.6962 65.2108 181.3922 62.1108 180.3192 55.5858 180.3192 44.6748 180.3192 33.7768 181.3922 27.2588 183.6962 24.1608 185.7172 21.4428 188.4512 21.0368 189.9032 21.0368L189.9132 21.0368C191.3612 21.0368 194.0972 21.4428 196.1582 24.1608 198.3672 27.0708 199.5342 34.1658 199.5342 44.6748 199.5342 55.1948 198.3672 62.2948 196.1582 65.2088M377.3472.4783L374.0442.4783C373.4442.4783 372.8122.5213 372.2582 1.0413 371.5972 1.6583 371.6032 2.4353 371.6072 3.1863L371.6112 73.0673C371.6072 73.8213 371.6032 74.6023 372.2652 75.2233 372.8202 75.7433 373.4512 75.7853 374.0512 75.7853L377.3552 75.7853C377.9542 75.7853 378.5862 75.7433 379.1412 75.2213 379.7892 74.6163 379.7822 73.8543 379.7762 73.1173L379.7882 3.1983C379.7912 2.4423 379.7952 1.6623 379.1332 1.0413 378.5792.5213 377.9452.4783 377.3472.4783M151.8071 13.5174L151.4881 13.5194C141.7661 13.5194 135.4851 21.4944 135.4851 33.8364L135.4931 73.0834C135.4891 73.8354 135.4831 74.6124 136.1431 75.2294 136.6981 75.7484 137.3281 75.7934 137.9261 75.7934L141.2371 75.7934C141.8351 75.7934 142.4651 75.7484 143.0201 75.2294 143.6801 74.6124 143.6741 73.8354 143.6711 73.0834L143.6321 33.5254C143.6321 26.2774 146.4861 22.0574 151.6641 21.6414L151.9101 21.6224C152.6311 21.5724 153.3761 21.5194 153.9621 20.8734 154.5261 20.2514 154.5201 19.5424 154.5161 18.8564L154.5161 16.2064C154.5201 15.5204 154.5261 14.8124 153.9621 14.1884 153.4001 13.5684 152.5901 13.5174 151.8071 13.5174M330.9675 14.0311C330.4945 13.5011 329.7115 13.4581 329.0115 13.4581L325.8115 13.4601C325.0355 13.4641 324.3015 13.4661 323.8385 14.0371 323.5565 14.3841 323.3215 15.0631 323.0535 16.3101L314.6455 57.7261C314.6455 57.7261 314.5605 58.2131 314.5375 58.2561 314.5015 58.2131 314.4205 57.7241 314.4205 57.7241L306.0145 16.3081C305.7455 15.0631 305.5105 14.3841 305.2295 14.0371 304.7655 13.4661 304.0295 13.4641 303.2535 13.4601L300.0565 13.4581C299.3585 13.4581 298.5735 13.5011 298.1005 14.0311 297.5645 14.6301 297.7105 15.4041 297.8505 16.1521L310.1725 73.4231C310.3375 74.0961 310.5055 74.7911 311.0785 75.3311 311.6335 75.8491 312.2825 75.8931 312.8975 75.8931L316.2025 75.8931C316.8095 75.8931 317.3985 75.8491 317.9545 75.3291 318.5525 74.7701 318.7165 74.1181 318.9075 73.3661L331.2155 16.1521C331.3575 15.4041 331.5005 14.6301 330.9675 14.0311M295.0672 22.3581C292.9382 16.5521 287.3682 13.0881 280.1732 13.0881 273.4172 13.0881 267.8852 16.7961 265.3762 23.0101 263.9552 26.5321 263.6152 29.8281 263.5452 30.7561 263.4902 31.4511 263.4102 32.5031 264.0012 33.0961 264.4952 33.5921 265.3252 33.6601 266.1482 33.6601L268.7362 33.6601C269.4742 33.6601 270.3862 33.5981 270.9182 33.1001 271.4682 32.5851 271.5522 31.8821 271.6332 31.2031L271.6482 31.0591C272.0362 27.8791 272.7342 25.6471 273.7772 24.2351 275.9182 21.3471 279.1732 21.0371 280.4722 21.0371 281.6852 21.0371 284.7032 21.2831 286.5232 23.5591 287.4462 24.7111 287.8592 25.9681 287.8592 27.6371 287.8592 31.7981 285.1722 33.7601 283.7272 34.8111 282.6222 35.6161 281.0022 36.5821 279.1252 37.6991 276.8232 39.0691 274.2122 40.6231 271.6242 42.4231 262.4742 48.7901 261.2422 55.4391 261.2422 61.1041 261.2422 65.9221 262.9242 69.8841 266.1062 72.5561 268.8932 74.8951 272.7762 76.1811 277.0402 76.1811 280.7452 76.1811 284.1642 75.0101 286.9322 72.7941L287.1702 72.6001C287.4782 72.3481 287.7022 72.1641 287.8962 72.1641L287.9022 72.1641C288.0212 72.1961 288.0272 72.5581 288.0312 72.7771 288.0312 72.8601 288.0362 73.1731 288.0362 73.1731 288.0332 73.9271 288.0292 74.7081 288.6912 75.3311 289.2452 75.8491 289.8772 75.8931 290.4752 75.8931L293.7802 75.8931C294.3822 75.8931 295.0142 75.8491 295.5672 75.3291 296.2152 74.7231 296.2082 73.9601 296.2022 73.2231L296.2002 32.5701C296.2002 30.4391 296.2002 25.4441 295.0672 22.3581zM288.0022 57.4251C288.0022 60.7561 286.9132 63.5821 284.8522 65.5951 282.9852 67.4231 280.4612 68.4281 277.7542 68.4281L277.7522 68.4281C277.6422 68.4281 277.5322 68.4261 277.3692 68.4231 273.8472 68.3191 272.0342 66.9491 271.1352 65.8181 270.0132 64.4111 269.3932 62.5871 269.3932 60.6891 269.3932 56.2831 271.0962 53.0211 275.2682 49.4231 277.4432 47.5481 281.4262 45.0701 284.0612 43.4321 284.5022 43.1561 285.6732 42.4231 285.6732 42.4231 286.7292 41.7581 287.3652 41.3561 287.6812 41.3561L287.7472 41.3631C288.0082 41.4331 288.0042 42.1411 288.0022 42.6581L288.0022 57.4251z"/>
    </g>
    <polygon points="173.726 104.529 164.963 104.529 164.963 112.207 161.581 112.207 161.581 95.147 164.963 95.147 164.963 101.606 173.726 101.606 173.726 95.147 177.107 95.147 177.107 112.207 173.726 112.207"/>
    <path d="M193.4985,94.9026 C198.9075,94.9026 202.6375,98.8266 202.6375,103.6766 C202.6375,108.5276 198.9075,112.4516 193.4985,112.4516 C188.0895,112.4516 184.3605,108.5276 184.3605,103.6766 C184.3605,98.8266 188.0895,94.9026 193.4985,94.9026 M193.4985,109.5256 C196.8035,109.5256 199.2585,106.8946 199.2585,103.6766 C199.2585,100.4576 196.8035,97.8276 193.4985,97.8276 C190.1935,97.8276 187.7395,100.4576 187.7395,103.6766 C187.7395,106.8946 190.1935,109.5256 193.4985,109.5256"/>
    <polygon points="219.157 105.358 225.541 95.147 227.919 95.147 227.919 112.207 224.538 112.207 224.538 102.702 220.332 109.405 217.98 109.405 213.772 102.702 213.772 112.207 210.392 112.207 210.392 95.147 212.77 95.147"/>
    <polygon points="240.304 98.07 240.304 101.605 245.687 101.605 245.687 104.529 240.304 104.529 240.304 109.281 247.69 109.281 247.69 112.207 236.925 112.207 236.925 95.147 247.441 95.147 247.441 98.07"/>
    <polygon points="140.146 161.535 142.167 161.535 142.167 147.758 140.146 147.758"/>
    <polygon points="151.876 151.419 151.876 161.536 149.855 161.536 149.855 147.757 151.27 147.757 159.761 157.875 159.761 147.757 161.783 147.757 161.783 161.536 160.369 161.536"/>
    <polygon points="167.957 147.758 177.663 147.758 177.663 149.627 173.819 149.627 173.819 161.536 171.799 161.536 171.799 149.627 167.957 149.627"/>
    <polygon points="190.506 153.17 190.506 155.041 185.856 155.041 185.856 159.667 192.124 159.667 192.124 161.536 183.834 161.536 183.834 147.758 191.922 147.758 191.922 149.627 185.856 149.627 185.856 153.17"/>
    <path d="M200.8241,155.0412 L200.8241,161.5362 L198.8021,161.5362 L198.8021,147.7572 L203.7551,147.7572 C205.0491,147.7572 205.8591,148.0522 206.5061,148.5652 C207.3551,149.2352 207.9021,150.2582 207.9021,151.3982 C207.9021,152.5412 207.3551,153.5642 206.5061,154.2332 C206.0611,154.5872 205.5561,154.8432 204.8481,154.9622 L209.9231,161.5362 L207.4761,161.5362 L202.4421,155.0412 L200.8241,155.0412 Z M203.6551,153.1702 C204.5651,153.1702 205.0281,152.9732 205.3531,152.6582 C205.6771,152.3452 205.8791,151.8912 205.8791,151.3982 C205.8791,150.9062 205.6771,150.4542 205.3531,150.1382 C205.0281,149.8252 204.5651,149.6272 203.6551,149.6272 L200.8241,149.6272 L200.8241,153.1702 L203.6551,153.1702 Z"/>
    <polygon points="215.792 161.535 217.815 161.535 217.815 147.758 215.792 147.758"/>
    <g transform="translate(224 146.89)">
      <path d="M7.4647.6713C11.4697.6713 14.5427 3.7413 14.5427 7.7573 14.5427 11.7733 11.4697 14.8423 7.4647 14.8423 3.4617 14.8423.3887 11.7733.3887 7.7573.3887 3.7413 3.4617.6713 7.4647.6713M7.4647 12.9733C10.3577 12.9733 12.5217 10.7493 12.5217 7.7573 12.5217 4.7853 10.3577 2.5413 7.4647 2.5413 4.5737 2.5413 2.4117 4.7853 2.4117 7.7573 2.4117 10.7493 4.5737 12.9733 7.4647 12.9733M23.1436 8.1512L23.1436 14.6462 21.1206 14.6462 21.1206.8672 26.0736.8672C27.3686.8672 28.1776 1.1622 28.8256 1.6752 29.6746 2.3452 30.2196 3.3682 30.2196 4.5082 30.2196 5.6512 29.6746 6.6742 28.8256 7.3432 28.3806 7.6972 27.8756 7.9532 27.1656 8.0722L32.2416 14.6462 29.7956 14.6462 24.7616 8.1512 23.1436 8.1512zM25.9736 6.2802C26.8836 6.2802 27.3496 6.0832 27.6726 5.7682 27.9966 5.4552 28.1966 5.0012 28.1966 4.5082 28.1966 4.0162 27.9966 3.5642 27.6726 3.2482 27.3496 2.9352 26.8836 2.7372 25.9736 2.7372L23.1436 2.7372 23.1436 6.2802 25.9736 6.2802zM38.1904 11.2016C39.0194 12.1866 40.1924 12.9726 41.6484 12.9726 42.9614 12.9726 44.1154 12.1436 44.1154 10.9056 44.1154 8.7996 41.1224 8.5646 39.2424 7.3626 38.2324 6.7146 37.4434 5.7686 37.4434 4.3316 37.4434 2.3236 39.2614.6716 41.7284.6716 43.5294.6716 44.7824 1.4386 45.5314 2.0486L44.3374 3.4856C43.5694 2.8566 42.6994 2.5406 41.8094 2.5406 40.6364 2.5406 39.4634 3.1906 39.4634 4.3916 39.4634 6.1436 42.4774 6.5166 44.2974 7.6976 45.2474 8.3086 46.1364 9.2726 46.1364 10.8476 46.1364 13.2696 44.2164 14.8426 41.7494 14.8426 39.8084 14.8426 38.0484 14.0156 36.7954 12.5406L38.1904 11.2016z"/>
    </g>
  </g>
</svg>
